<?xml version="1.0" standalone="no"?><!DOCTYPE svg PUBLIC "-//W3C//DTD SVG 1.1//EN" "http://www.w3.org/Graphics/SVG/1.1/DTD/svg11.dtd"><svg xmlns="http://www.w3.org/2000/svg" version="1.1" width="1008.667" height="762.837" xmlns:xlink="http://www.w3.org/1999/xlink" xlink="http://www.w3.org/1999/xlink" style="position:relative;overflow:hidden;" viewBox="-12 -12 1008.667 762.837"><defs><filter id="c006f326-dfd7-4bc4-b755-1defd9cddbbb" x="-0.5" y="-0.5" width="2" height="2"><feFlood flood-color="#000" flood-opacity="0.6" result="flood"/><feComposite in="flood" in2="SourceAlpha" operator="in" result="mask"/><feGaussianBlur in="mask" stdDeviation="2"/><feOffset dx="1.25" dy="1.25" result="oEffect0"/><feMerge><feMergeNode in="oEffect0"/><feMergeNode in="SourceGraphic"/></feMerge></filter><filter id="2baef1ef-3524-42eb-90ab-492304c09943" x="-0.5" y="-0.5" width="2" height="2"><feMerge><feMergeNode in="SourceGraphic"/></feMerge></filter></defs><g><g width="984.333" height="46.833" transform="scale(1,1) translate(7.333,11.667)"><g stroke="#000000" opacity="1" stroke-width="0" stroke-dasharray="none" width="984.333" height="46.833" transform="scale(1,1) translate(0,0)" fill="#7F7F7F" fill-opacity="1" stroke-opacity="1"><rect width="984.333" height="46.833"/></g><g width="984.3333333333333" height="46.83333333333333" transform="scale(1,1) translate(0,0)"><text width="984.3333333333333" height="23.958330154418945" transform="scale(1,1) translate(0,11.437501589457192)" xml:space="preserve"><tspan xml:space="preserve" text-rendering="optimizeSpeed" style="font-family: Arial,Helvetica Neue,Helvetica,sans-serif;" font-size="22.22222222222222" font-weight="bold" font-style="normal" fill="#FFFFFF" opacity="1" x="272.896" text-anchor="start" y="19.792" textLength="438.5415954589844">Data Flow Diagram - Online Order System</tspan></text></g></g><g width="125.861" height="109.833" transform="scale(1,1) translate(391.333,152)"><g stroke="#7F7F7F" opacity="1" stroke-width="1" stroke-dasharray="none" width="125.861" height="109.833" transform="scale(1,1) translate(0,0)" fill="url(#af270389-a1d9-435f-81e6-02512ccb0ef8)" stroke-opacity="1" filter="url(#c006f326-dfd7-4bc4-b755-1defd9cddbbb)"><linearGradient id="af270389-a1d9-435f-81e6-02512ccb0ef8" x1="62.9305" y1="0" x2="62.9305" y2="109.833" gradientUnits="userSpaceOnUse"><stop offset="0%" style="stop-color:#E1E8F2;stop-opacity:1;"/><stop offset="100%" style="stop-color:#D8E2F0;stop-opacity:1;"/></linearGradient><rect width="125.861" height="109.833"/></g><g transform="scale(1,1) translate(0,0)" fill="url(#17ada7d8-b387-4ec6-a624-f4c99cd35358)" stroke="#E1E8F2" filter="url(#2baef1ef-3524-42eb-90ab-492304c09943)"><linearGradient id="17ada7d8-b387-4ec6-a624-f4c99cd35358" x1="62.93050003051758" y1="0.5" x2="62.93050003051758" y2="109.33300018310547" gradientUnits="userSpaceOnUse"><stop offset="0%" style="stop-color:#E1E8F2;stop-opacity:1;"/><stop offset="100%" style="stop-color:#D8E2F0;stop-opacity:1;"/></linearGradient><path d="M0.5,0.5 L27.167,0.5 L27.167,53.333 L0.5,53.333 z M27.167,0.5 L125.361,0.5 L125.361,53.333 L27.167,53.333 z M0.5,53.333 L125.361,53.333 L125.361,109.333 L0.5,109.333 z" stroke-width="0" stroke-dasharray="none"/></g><g width="22.5" height="47.83333381017048" transform="scale(1,1) translate(2.5,2.5)"><text width="22.5" height="14.583331108093262" transform="scale(1,1) translate(0,16.62500135103861)" xml:space="preserve"><tspan xml:space="preserve" text-rendering="optimizeSpeed" style="font-family: Arial,Helvetica Neue,Helvetica,sans-serif;" font-size="12.5" font-weight="normal" font-style="normal" fill="#333333" opacity="1" x="7.604" text-anchor="start" y="11.458" textLength="7.291666030883789">1</tspan></text></g><g width="94.19408235013354" height="47.83333381017048" transform="scale(1,1) translate(29.167,2.5)"><text width="94.19408235013354" height="29.166662216186523" transform="scale(1,1) translate(0,9.333335796991978)" xml:space="preserve"><tspan xml:space="preserve" text-rendering="optimizeSpeed" style="font-family: Arial,Helvetica Neue,Helvetica,sans-serif;" font-size="12.5" font-weight="normal" font-style="normal" fill="#333333" opacity="1" x="0" text-anchor="start" y="11.458" textLength="91.66665649414062">Key provided by</tspan><tspan xml:space="preserve" text-rendering="optimizeSpeed" style="font-family: Arial,Helvetica Neue,Helvetica,sans-serif;" font-size="12.5" font-weight="normal" font-style="normal" fill="#333333" opacity="1" x="15.326" text-anchor="start" y="26.042" textLength="60.416664123535156">Authorities</tspan></text></g><g width="120.8607490168002" height="52" transform="scale(1,1) translate(2.5,55.333)"><text width="120.8607490168002" height="14.583331108093262" transform="scale(1,1) translate(0,18.70833444595337)" xml:space="preserve"><tspan xml:space="preserve" text-rendering="optimizeSpeed" style="font-family: Arial,Helvetica Neue,Helvetica,sans-serif;" font-size="12.5" font-weight="bold" font-style="normal" fill="#333333" opacity="1" x="29.701" text-anchor="start" y="11.458" textLength="61.45832061767578"> Encrypter</tspan></text></g><g transform="scale(1,1) translate(0,0)" fill="#7F7F7F" stroke="#7F7F7F" stroke-opacity="1"><path d="M0.5,52.833 L125.361,52.833" fill="none" stroke-width="1" stroke-dasharray="none"/><g><g stroke-dasharray="none"><path d="M-0.5,51.833L1.5,51.833L1.5,53.833L-0.5,53.833z" stroke-width="0" fill="none"/></g></g></g><g transform="scale(1,1) translate(0,0)" fill="#7F7F7F" stroke="#7F7F7F" stroke-opacity="1"><path d="M27.083,0.5 L27.083,53.333" fill="none" stroke-width="1" stroke-dasharray="none"/><g><g stroke-dasharray="none"><path d="M26.083,-0.5L28.083,-0.5L28.083,1.5L26.083,1.5z" stroke-width="0" fill="none"/></g></g></g><g stroke="white" fill="none" stroke-opacity="0" stroke-width="3" stroke-dasharray="none" width="3" height="108.833" transform="scale(1,1) translate(3.5,0.5)"><rect width="3" height="108.833"/></g><g stroke="white" fill="none" stroke-opacity="0" stroke-width="3" stroke-dasharray="none" width="124.861" height="3" transform="scale(1,1) translate(0.5,3.5)"><rect width="124.861" height="3"/></g></g><g width="137.216" height="69.167" transform="scale(1,1) translate(391.333,365)"><g stroke="#7F7F7F" opacity="1" stroke-width="1" stroke-dasharray="none" width="137.216" height="69.167" transform="scale(1,1) translate(0,0)" fill="url(#310bbe7c-19f3-4faf-bee9-13c5c941bc81)" stroke-opacity="1" filter="url(#c006f326-dfd7-4bc4-b755-1defd9cddbbb)"><linearGradient id="310bbe7c-19f3-4faf-bee9-13c5c941bc81" x1="68.608" y1="0" x2="68.608" y2="69.167" gradientUnits="userSpaceOnUse"><stop offset="0%" style="stop-color:#E1E8F2;stop-opacity:1;"/><stop offset="100%" style="stop-color:#D8E2F0;stop-opacity:1;"/></linearGradient><rect width="137.216" height="69.167"/></g><g transform="scale(1,1) translate(0,0)" fill="url(#8a426892-2ec3-4312-ae1f-48efe63a61c3)" stroke="#E1E8F2" filter="url(#2baef1ef-3524-42eb-90ab-492304c09943)"><linearGradient id="8a426892-2ec3-4312-ae1f-48efe63a61c3" x1="68.60800170898438" y1="0.5" x2="68.60800170898438" y2="68.66699981689453" gradientUnits="userSpaceOnUse"><stop offset="0%" style="stop-color:#E1E8F2;stop-opacity:1;"/><stop offset="100%" style="stop-color:#D8E2F0;stop-opacity:1;"/></linearGradient><path d="M0.5,0.5 L27.167,0.5 L27.167,35.5 L0.5,35.5 z M27.167,0.5 L136.716,0.5 L136.716,35.5 L27.167,35.5 z M0.5,35.5 L136.716,35.5 L136.716,68.667 L0.5,68.667 z" stroke-width="0" stroke-dasharray="none"/></g><g width="22.5" height="29.999995549519852" transform="scale(1,1) translate(2.5,2.5)"><text width="22.5" height="14.583331108093262" transform="scale(1,1) translate(0,7.708332220713295)" xml:space="preserve"><tspan xml:space="preserve" text-rendering="optimizeSpeed" style="font-family: Arial,Helvetica Neue,Helvetica,sans-serif;" font-size="12.5" font-weight="normal" font-style="normal" fill="#333333" opacity="1" x="7.604" text-anchor="start" y="11.458" textLength="7.291666030883789">2</tspan></text></g><g width="105.54898560565275" height="29.999995549519852" transform="scale(1,1) translate(29.167,2.5)"><text width="105.54898560565275" height="29.166662216186523" transform="scale(1,1) translate(0,0.4166666666666643)" xml:space="preserve"><tspan xml:space="preserve" text-rendering="optimizeSpeed" style="font-family: Arial,Helvetica Neue,Helvetica,sans-serif;" font-size="12.5" font-weight="normal" font-style="normal" fill="#333333" opacity="1" x="29.337" text-anchor="start" y="11.458" textLength="43.74999237060547">Decrypt</tspan><tspan xml:space="preserve" text-rendering="optimizeSpeed" style="font-family: Arial,Helvetica Neue,Helvetica,sans-serif;" font-size="12.5" font-weight="normal" font-style="normal" fill="#333333" opacity="1" x="23.087" text-anchor="start" y="26.042" textLength="59.37499237060547">responses</tspan></text></g><g width="132.2156522723194" height="29.166670680046032" transform="scale(1,1) translate(2.5,37.5)"><text width="132.2156522723194" height="14.583331108093262" transform="scale(1,1) translate(0,7.291669785976385)" xml:space="preserve"><tspan xml:space="preserve" text-rendering="optimizeSpeed" style="font-family: Arial,Helvetica Neue,Helvetica,sans-serif;" font-size="12.5" font-weight="bold" font-style="normal" fill="#333333" opacity="1" x="36.42" text-anchor="start" y="11.458" textLength="59.37499237060547">Decrypter</tspan></text></g><g transform="scale(1,1) translate(0,0)" fill="#7F7F7F" stroke="#7F7F7F" stroke-opacity="1"><path d="M0.5,35 L136.716,35" fill="none" stroke-width="1" stroke-dasharray="none"/><g><g stroke-dasharray="none"><path d="M-0.5,34L1.5,34L1.5,36L-0.5,36z" stroke-width="0" fill="none"/></g></g></g><g transform="scale(1,1) translate(0,0)" fill="#7F7F7F" stroke="#7F7F7F" stroke-opacity="1"><path d="M27.083,0.5 L27.083,35.5" fill="none" stroke-width="1" stroke-dasharray="none"/><g><g stroke-dasharray="none"><path d="M26.083,-0.5L28.083,-0.5L28.083,1.5L26.083,1.5z" stroke-width="0" fill="none"/></g></g></g><g stroke="white" fill="none" stroke-opacity="0" stroke-width="3" stroke-dasharray="none" width="3" height="68.167" transform="scale(1,1) translate(3.5,0.5)"><rect width="3" height="68.167"/></g><g stroke="white" fill="none" stroke-opacity="0" stroke-width="3" stroke-dasharray="none" width="136.216" height="3" transform="scale(1,1) translate(0.5,3.5)"><rect width="136.216" height="3"/></g></g><g width="131.333" height="65.333" transform="scale(1,1) translate(201,92.333)"><g width="131.333" height="65.333" transform="scale(1,1) translate(0,0)" stroke="#7F7F7F" stroke-width="1" stroke-dasharray="none" fill="url(#2253cadd-5feb-41af-87c7-32318fd7fb07)" stroke-opacity="1" filter="url(#c006f326-dfd7-4bc4-b755-1defd9cddbbb)"><linearGradient id="2253cadd-5feb-41af-87c7-32318fd7fb07" x1="65.6665" y1="0" x2="65.6665" y2="65.333" gradientUnits="userSpaceOnUse"><stop offset="0%" style="stop-color:#92B0CF;stop-opacity:1;"/><stop offset="100%" style="stop-color:#8CA8CD;stop-opacity:1;"/></linearGradient><ellipse rx="65.6665" ry="32.6665" cx="65.6665" cy="32.6665"/></g><g width="88.15958392066665" height="41.49053630866666" transform="scale(1,1) translate(21.587,11.921)"><text width="88.15958392066665" height="14.583331108093262" transform="scale(1,1) translate(0,13.4536026002867)" xml:space="preserve"><tspan xml:space="preserve" text-rendering="optimizeSpeed" style="font-family: Arial,Helvetica Neue,Helvetica,sans-serif;" font-size="12.5" font-weight="bold" font-style="normal" fill="#333333" opacity="1" x="28.976" text-anchor="start" y="11.458" textLength="30.208328247070312">Voter</tspan></text></g></g><g width="108.333" height="52.833" transform="scale(1,1) translate(600,263.833)"><g stroke="#7F7F7F" opacity="1" stroke-width="1" stroke-dasharray="none" width="108.333" height="52.833" transform="scale(1,1) translate(0,0)" fill="url(#f71e55e2-aeb5-4533-959a-44beb2819169)" stroke-opacity="1" filter="url(#2baef1ef-3524-42eb-90ab-492304c09943)"><linearGradient id="f71e55e2-aeb5-4533-959a-44beb2819169" x1="54.1665" y1="0" x2="54.1665" y2="52.833" gradientUnits="userSpaceOnUse"><stop offset="0%" style="stop-color:#EAE6D5;stop-opacity:1;"/><stop offset="100%" style="stop-color:#E8E1C3;stop-opacity:1;"/></linearGradient><rect width="108.333" height="52.833"/></g><g width="103.33333253860451" height="47.83333333333333" transform="scale(1,1) translate(2.5,2.5)"><text width="103.33333253860451" height="29.166662216186523" transform="scale(1,1) translate(0,9.333335558573403)" xml:space="preserve"><tspan xml:space="preserve" text-rendering="optimizeSpeed" style="font-family: Arial,Helvetica Neue,Helvetica,sans-serif;" font-size="12.5" font-weight="normal" font-style="normal" fill="#333333" opacity="1" x="6.354" text-anchor="start" y="11.458" textLength="87.49998474121094">        Blockchain</tspan><tspan xml:space="preserve" text-rendering="optimizeSpeed" style="font-family: Arial,Helvetica Neue,Helvetica,sans-serif;" font-size="12.5" font-weight="normal" font-style="normal" fill="#333333" opacity="1" x="6.875" text-anchor="start" y="26.042" textLength="89.58332061767578">           Database</tspan></text></g></g><g width="136.167" height="0" transform="scale(1,1) translate(555.667,265)"><g transform="scale(1,1) translate(0,0)" fill="#545454" stroke="#545454" stroke-opacity="1"><path d="M0,0 L136.167,0" fill="none" stroke-width="1" stroke-dasharray="none"/><g><g stroke-dasharray="none"><path d="M-1,-1L1,-1L1,1L-1,1z" stroke-width="0" fill="none"/></g></g></g></g><g width="0" height="53.333" transform="scale(1,1) translate(556.667,264)"><g transform="scale(1,1) translate(0,0)" fill="#545454" stroke="#545454" stroke-opacity="1"><path d="M0,0 L0,53.333" fill="none" stroke-width="1" stroke-dasharray="none"/><g><g stroke-dasharray="none"><path d="M-1,-1L1,-1L1,1L-1,1z" stroke-width="0" fill="none"/></g></g></g></g><g width="136.167" height="0" transform="scale(1,1) translate(557,317)"><g transform="scale(1,1) translate(0,0)" fill="#545454" stroke="#545454" stroke-opacity="1"><path d="M0,0 L136.167,0" fill="none" stroke-width="1" stroke-dasharray="none"/><g><g stroke-dasharray="none"><path d="M-1,-1L1,-1L1,1L-1,1z" stroke-width="0" fill="none"/></g></g></g></g><g width="61.833" height="54.75" transform="scale(1,1) translate(554.833,264.291)"><g stroke="#7F7F7F" opacity="1" stroke-width="1" stroke-dasharray="none" width="61.833" height="54.75" transform="scale(1,1) translate(0,0)" fill="url(#a61decf9-5ea3-474b-bfd5-c41c11f9b1da)" stroke-opacity="1" filter="url(#2baef1ef-3524-42eb-90ab-492304c09943)"><linearGradient id="a61decf9-5ea3-474b-bfd5-c41c11f9b1da" x1="30.9165" y1="0" x2="30.9165" y2="54.75" gradientUnits="userSpaceOnUse"><stop offset="0%" style="stop-color:#EAE6D5;stop-opacity:1;"/><stop offset="100%" style="stop-color:#E8E1C3;stop-opacity:1;"/></linearGradient><rect width="61.833" height="54.75"/></g><g width="56.83333381017053" height="49.750354609929076" transform="scale(1,1) translate(2.5,2.5)"><text width="56.83333381017053" height="29.166662216186523" transform="scale(1,1) translate(0,10.291846196871276)" xml:space="preserve"><tspan xml:space="preserve" text-rendering="optimizeSpeed" style="font-family: Arial,Helvetica Neue,Helvetica,sans-serif;" font-size="12.5" font-weight="bold" font-style="normal" fill="#333333" opacity="1" x="0.292" text-anchor="start" y="11.458" textLength="56.24999237060547">Decentali</tspan><tspan xml:space="preserve" text-rendering="optimizeSpeed" style="font-family: Arial,Helvetica Neue,Helvetica,sans-serif;" font-size="12.5" font-weight="bold" font-style="normal" fill="#333333" opacity="1" x="17.479" text-anchor="start" y="26.042" textLength="21.87499237060547">sed</tspan></text></g></g><g width="136.5" height="52.833" transform="scale(1,1) translate(598.167,675.833)"><g stroke="#7F7F7F" opacity="1" stroke-width="1" stroke-dasharray="none" width="136.5" height="52.833" transform="scale(1,1) translate(0,0)" fill="url(#9ddde50d-fefa-4d5f-a50b-92dd22987b8d)" stroke-opacity="1" filter="url(#2baef1ef-3524-42eb-90ab-492304c09943)"><linearGradient id="9ddde50d-fefa-4d5f-a50b-92dd22987b8d" x1="68.25" y1="0" x2="68.25" y2="52.833" gradientUnits="userSpaceOnUse"><stop offset="0%" style="stop-color:#EAE6D5;stop-opacity:1;"/><stop offset="100%" style="stop-color:#E8E1C3;stop-opacity:1;"/></linearGradient><rect width="136.5" height="52.833"/></g><g width="131.5" height="47.83333333333333" transform="scale(1,1) translate(2.5,2.5)"><text width="131.5" height="29.166662216186523" transform="scale(1,1) translate(0,9.333335558573403)" xml:space="preserve"><tspan xml:space="preserve" text-rendering="optimizeSpeed" style="font-family: Arial,Helvetica Neue,Helvetica,sans-serif;" font-size="12.5" font-weight="normal" font-style="normal" fill="#333333" opacity="1" x="0.646" text-anchor="start" y="11.458" textLength="130.20831298828125">        Result Declaration</tspan></text></g></g><g width="136.167" height="0" transform="scale(1,1) translate(596.667,677)"><g transform="scale(1,1) translate(0,0)" fill="#545454" stroke="#545454" stroke-opacity="1"><path d="M0,0 L136.167,0" fill="none" stroke-width="1" stroke-dasharray="none"/><g><g stroke-dasharray="none"><path d="M-1,-1L1,-1L1,1L-1,1z" stroke-width="0" fill="none"/></g></g></g></g><g width="0" height="53.333" transform="scale(1,1) translate(597.667,676)"><g transform="scale(1,1) translate(0,0)" fill="#545454" stroke="#545454" stroke-opacity="1"><path d="M0,0 L0,53.333" fill="none" stroke-width="1" stroke-dasharray="none"/><g><g stroke-dasharray="none"><path d="M-1,-1L1,-1L1,1L-1,1z" stroke-width="0" fill="none"/></g></g></g></g><g width="136.167" height="0" transform="scale(1,1) translate(598,729)"><g transform="scale(1,1) translate(0,0)" fill="#545454" stroke="#545454" stroke-opacity="1"><path d="M0,0 L136.167,0" fill="none" stroke-width="1" stroke-dasharray="none"/><g><g stroke-dasharray="none"><path d="M-1,-1L1,-1L1,1L-1,1z" stroke-width="0" fill="none"/></g></g></g></g><g width="121.93" height="27" transform="scale(1,1) translate(332.333,125)"><g fill="#000000" stroke="#000000" stroke-opacity="1" transform="scale(1,1) translate(0,0)"><path fill="none" stroke-width="1" stroke-dasharray="none" d="M0,0 A77.945,77.945 0 0,1 117.246,18.173"/><g><g stroke-dasharray="none"><path d="M121.663,15.829L121.933,27.006L112.829,20.516z" stroke="none" fill-opacity="1"/></g></g></g></g><g width="108.803" height="58.083" transform="scale(1,1) translate(517.194,206.917)"><g fill="#000000" stroke="#000000" stroke-opacity="1" transform="scale(1,1) translate(0,0)"><path fill="none" stroke-width="1" stroke-dasharray="none" d="M0,0 A79.699,79.699 0 0,1 106.249,48.421"/><g><g stroke-dasharray="none"><path d="M111.084,47.144L108.805,58.089L101.415,49.699z" stroke="none" fill-opacity="1"/></g></g></g></g><g width="139.521" height="72.958" transform="scale(1,1) translate(526.896,602.875)"><g fill="#000000" stroke="#000000" stroke-opacity="1" transform="scale(1,1) translate(0,0)"><path fill="none" stroke-width="1" stroke-dasharray="none" d="M0,0 A205.618,205.618 0 0,1 132.925,65.443"/><g><g stroke-dasharray="none"><path d="M136.682,62.145L139.522,72.959L129.167,68.742z" stroke="none" fill-opacity="1"/></g></g></g></g><g width="41.667" height="29.167" transform="scale(1,1) translate(366.667,91.667)"><g stroke="#000000" opacity="1" stroke-width="0" stroke-dasharray="none" width="41.667" height="29.167" transform="scale(1,1) translate(0,0)" fill="none" stroke-opacity="1"><rect width="41.667" height="29.167"/></g><g width="41.66666030883789" height="29.166662216186523" transform="scale(1,1) translate(0,0)"><text width="41.66666030883789" height="29.166662216186523" transform="scale(1,1) translate(0,0)" xml:space="preserve"><tspan xml:space="preserve" text-rendering="optimizeSpeed" style="font-family: Arial,Helvetica Neue,Helvetica,sans-serif;" font-size="12.5" font-weight="normal" font-style="normal" fill="#000000" opacity="1" x="0" text-anchor="start" y="11.458" textLength="38.54166030883789">signed</tspan><tspan xml:space="preserve" text-rendering="optimizeSpeed" style="font-family: Arial,Helvetica Neue,Helvetica,sans-serif;" font-size="12.5" font-weight="normal" font-style="normal" fill="#000000" opacity="1" x="0" text-anchor="start" y="26.042" textLength="23.958330154418945">vote</tspan></text></g></g><g width="95.3" height="52.699" transform="scale(1,1) translate(296.034,154.218)"><g fill="#000000" stroke="#000000" stroke-opacity="1" transform="scale(1,1) translate(0,0)"><path fill="none" stroke-width="1" stroke-dasharray="none" d="M-0.102,9.988 A59.396,59.396 0 0,0 95.3,52.699"/><g><g stroke-dasharray="none"><path d="M-5.101,9.937L0,-0.012L4.898,10.039z" stroke="none" fill-opacity="1"/></g></g></g></g><g width="118" height="16" transform="scale(1,1) translate(258.333,217)"><g stroke="#000000" opacity="1" stroke-width="0" stroke-dasharray="none" width="118" height="16" transform="scale(1,1) translate(0,0)" fill="none" stroke-opacity="1"><rect width="118" height="16"/></g><g width="118" height="16" transform="scale(1,1) translate(0,0)"><text width="118" height="14.583331108093262" transform="scale(1,1) translate(0,0)" xml:space="preserve"><tspan xml:space="preserve" text-rendering="optimizeSpeed" style="font-family: Arial,Helvetica Neue,Helvetica,sans-serif;" font-size="12.5" font-weight="normal" font-style="normal" fill="#000000" opacity="1" x="0" text-anchor="start" y="11.458" textLength="104.1666488647461">acknowledgement</tspan></text></g></g><g width="208.167" height="16" transform="scale(1,1) translate(570.917,192)"><g stroke="#000000" opacity="1" stroke-width="0" stroke-dasharray="none" width="208.167" height="16" transform="scale(1,1) translate(0,0)" fill="none" stroke-opacity="1"><rect width="208.167" height="16"/></g><g width="208.16666666666666" height="16" transform="scale(1,1) translate(0,0)"><text width="208.16666666666666" height="14.583331108093262" transform="scale(1,1) translate(0,0)" xml:space="preserve"><tspan xml:space="preserve" text-rendering="optimizeSpeed" style="font-family: Arial,Helvetica Neue,Helvetica,sans-serif;" font-size="12.5" font-weight="normal" font-style="normal" fill="#000000" opacity="1" x="0" text-anchor="start" y="11.458" textLength="85.4166488647461">Encrypted Vote</tspan></text></g></g><g width="94.892" height="73.333" transform="scale(1,1) translate(459.941,291.667)"><g fill="#000000" stroke="#000000" stroke-opacity="1" transform="scale(1,1) translate(0,0)"><path fill="none" stroke-width="1" stroke-dasharray="none" d="M0.725,63.367 A76.202,76.202 0 0,1 94.892,0"/><g><g stroke-dasharray="none"><path d="M5.712,63.73L-0.001,73.34L-4.261,63.004z" stroke="none" fill-opacity="1"/></g></g></g></g><g width="135.562" height="74.5" transform="scale(1,1) translate(391.333,547)"><g stroke="#7F7F7F" opacity="1" stroke-width="1" stroke-dasharray="none" width="135.562" height="74.5" transform="scale(1,1) translate(0,0)" fill="url(#fecdb562-b0ce-44a4-a78c-a6ea3a22bc7d)" stroke-opacity="1" filter="url(#c006f326-dfd7-4bc4-b755-1defd9cddbbb)"><linearGradient id="fecdb562-b0ce-44a4-a78c-a6ea3a22bc7d" x1="67.781" y1="0" x2="67.781" y2="74.5" gradientUnits="userSpaceOnUse"><stop offset="0%" style="stop-color:#E1E8F2;stop-opacity:1;"/><stop offset="100%" style="stop-color:#D8E2F0;stop-opacity:1;"/></linearGradient><rect width="135.562" height="74.5"/></g><g transform="scale(1,1) translate(0,0)" fill="url(#d82a2f31-cd1f-4e03-aea9-1a2e685fbd2e)" stroke="#E1E8F2" filter="url(#2baef1ef-3524-42eb-90ab-492304c09943)"><linearGradient id="d82a2f31-cd1f-4e03-aea9-1a2e685fbd2e" x1="67.78099822998047" y1="0.5" x2="67.78099822998047" y2="74" gradientUnits="userSpaceOnUse"><stop offset="0%" style="stop-color:#E1E8F2;stop-opacity:1;"/><stop offset="100%" style="stop-color:#D8E2F0;stop-opacity:1;"/></linearGradient><path d="M0.5,0.5 L27.167,0.5 L27.167,34.667 L0.5,34.667 z M27.167,0.5 L135.062,0.5 L135.062,34.667 L27.167,34.667 z M0.5,34.667 L135.062,34.667 L135.062,74 L0.5,74 z" stroke-width="0" stroke-dasharray="none"/></g><g width="22.5" height="29.16666221618653" transform="scale(1,1) translate(2.5,2.5)"><text width="22.5" height="14.583331108093262" transform="scale(1,1) translate(0,7.291665554046634)" xml:space="preserve"><tspan xml:space="preserve" text-rendering="optimizeSpeed" style="font-family: Arial,Helvetica Neue,Helvetica,sans-serif;" font-size="12.5" font-weight="normal" font-style="normal" fill="#333333" opacity="1" x="7.604" text-anchor="start" y="11.458" textLength="7.291666030883789">3</tspan></text></g><g width="103.89578496541833" height="29.16666221618653" transform="scale(1,1) translate(29.167,2.5)"><text width="103.89578496541833" height="29.166662216186523" transform="scale(1,1) translate(0,3.552713678800501e-15)" xml:space="preserve"><tspan xml:space="preserve" text-rendering="optimizeSpeed" style="font-family: Arial,Helvetica Neue,Helvetica,sans-serif;" font-size="12.5" font-weight="normal" font-style="normal" fill="#333333" opacity="1" x="14.448" text-anchor="start" y="11.458" textLength="71.87499237060547">Independent</tspan><tspan xml:space="preserve" text-rendering="optimizeSpeed" style="font-family: Arial,Helvetica Neue,Helvetica,sans-serif;" font-size="12.5" font-weight="normal" font-style="normal" fill="#333333" opacity="1" x="21.74" text-anchor="start" y="26.042" textLength="60.416656494140625">Authorities</tspan></text></g><g width="130.562451632085" height="35.33333301544167" transform="scale(1,1) translate(2.5,36.667)"><text width="130.562451632085" height="29.166662216186523" transform="scale(1,1) translate(0,3.083335399627572)" xml:space="preserve"><tspan xml:space="preserve" text-rendering="optimizeSpeed" style="font-family: Arial,Helvetica Neue,Helvetica,sans-serif;" font-size="12.5" font-weight="bold" font-style="normal" fill="#333333" opacity="1" x="33.51" text-anchor="start" y="11.458" textLength="63.541656494140625">Verify Tally</tspan></text></g><g transform="scale(1,1) translate(0,0)" fill="#7F7F7F" stroke="#7F7F7F" stroke-opacity="1"><path d="M0.5,34.167 L135.062,34.167" fill="none" stroke-width="1" stroke-dasharray="none"/><g><g stroke-dasharray="none"><path d="M-0.5,33.167L1.5,33.167L1.5,35.167L-0.5,35.167z" stroke-width="0" fill="none"/></g></g></g><g transform="scale(1,1) translate(0,0)" fill="#7F7F7F" stroke="#7F7F7F" stroke-opacity="1"><path d="M27.083,0.5 L27.083,34.667" fill="none" stroke-width="1" stroke-dasharray="none"/><g><g stroke-dasharray="none"><path d="M26.083,-0.5L28.083,-0.5L28.083,1.5L26.083,1.5z" stroke-width="0" fill="none"/></g></g></g><g stroke="white" fill="none" stroke-opacity="0" stroke-width="3" stroke-dasharray="none" width="3" height="73.5" transform="scale(1,1) translate(3.5,0.5)"><rect width="3" height="73.5"/></g><g stroke="white" fill="none" stroke-opacity="0" stroke-width="3" stroke-dasharray="none" width="134.562" height="3" transform="scale(1,1) translate(0.5,3.5)"><rect width="134.562" height="3"/></g></g><g width="181.438" height="294" transform="scale(1,1) translate(526.896,290.25)"><g fill="#000000" stroke="#000000" stroke-opacity="1" transform="scale(1,1) translate(0,0)"><path fill="none" stroke-width="1" stroke-dasharray="none" d="M189.928,5.281 A172.795,172.795 0 1,1 0,294"/><g><g stroke-dasharray="none"><path d="M187.288,9.527L181.437,-0.001L192.569,1.035z" stroke="none" fill-opacity="1"/></g></g></g></g><g width="114.167" height="29.167" transform="scale(1,1) translate(722.667,418.833)"><g stroke="#000000" opacity="1" stroke-width="0" stroke-dasharray="none" width="114.167" height="29.167" transform="scale(1,1) translate(0,0)" fill="#FFFFFF" fill-opacity="1" stroke-opacity="1"><rect width="114.167" height="29.167"/></g><g width="114.16666666666666" height="29.166662216186523" transform="scale(1,1) translate(0,0)"><text width="114.16666666666666" height="29.166662216186523" transform="scale(1,1) translate(0,0)" xml:space="preserve"><tspan xml:space="preserve" text-rendering="optimizeSpeed" style="font-family: Arial,Helvetica Neue,Helvetica,sans-serif;" font-size="12.5" font-weight="normal" font-style="normal" fill="#000000" opacity="1" x="0" text-anchor="start" y="11.458" textLength="107.2916488647461">request blockchain</tspan><tspan xml:space="preserve" text-rendering="optimizeSpeed" style="font-family: Arial,Helvetica Neue,Helvetica,sans-serif;" font-size="12.5" font-weight="normal" font-style="normal" fill="#000000" opacity="1" x="0" text-anchor="start" y="26.042" textLength="66.66665649414062"> information</tspan></text></g></g><g width="165.833" height="16" transform="scale(1,1) translate(533.667,624)"><g stroke="#000000" opacity="1" stroke-width="0" stroke-dasharray="none" width="165.833" height="16" transform="scale(1,1) translate(0,0)" fill="#FFFFFF" fill-opacity="1" stroke-opacity="1"><rect width="165.833" height="16"/></g><g width="165.83333333333331" height="16" transform="scale(1,1) translate(0,0)"><text width="165.83333333333331" height="14.583331108093262" transform="scale(1,1) translate(0,0)" xml:space="preserve"><tspan xml:space="preserve" text-rendering="optimizeSpeed" style="font-family: Arial,Helvetica Neue,Helvetica,sans-serif;" font-size="12.5" font-weight="normal" font-style="normal" fill="#000000" opacity="1" x="0" text-anchor="start" y="11.458" textLength="101.0416488647461">          inform count</tspan></text></g></g><g width="156.944" height="230.333" transform="scale(1,1) translate(524.306,316.667)"><g fill="#545454" stroke="#545454" stroke-opacity="1" transform="scale(1,1) translate(0,0)"><path fill="none" stroke-width="1" stroke-dasharray="none" d="M156.944,0 A376.913,376.913 0 0,0 2.306,220.603"/><g><g stroke-dasharray="none"><path d="M7.171,221.755L0,230.333L-2.56,219.45z" stroke="none" fill-opacity="1"/></g></g></g><g stroke-width="0" stroke-dasharray="none" fill="#FFFFFF" opacity="1" width="70.75" height="33.25" transform="rotate(-55.73,56.399,100.127) scale(1,1) translate(21.024,83.502)"><rect width="70.75" height="33.25"/></g><g width="68.74998474121094" height="230.3333336512249" transform="rotate(-55.73,56.399,100.127) scale(1,1) translate(22.024,84.502)"><text width="68.74998474121094" height="31.249996185302734" transform="scale(1,1) translate(0,0)" xml:space="preserve"><tspan xml:space="preserve" text-rendering="optimizeSpeed" style="font-family: Arial,Helvetica Neue,Helvetica,sans-serif;" font-size="13.88888888888889" font-weight="normal" font-style="normal" fill="#333333" opacity="1" x="0" text-anchor="start" y="12.5" textLength="64.58332061767578">blockchain</tspan><tspan xml:space="preserve" text-rendering="optimizeSpeed" style="font-family: Arial,Helvetica Neue,Helvetica,sans-serif;" font-size="13.88888888888889" font-weight="normal" font-style="normal" fill="#333333" opacity="1" x="14.062" text-anchor="start" y="28.125" textLength="40.62499237060547">served</tspan></text></g></g><g width="0" height="15.625" transform="scale(1,1) translate(585.937,394.618)"><g stroke="#545454" opacity="1" stroke-width="0" stroke-dasharray="none" width="0" height="15.625" transform="scale(1,1) translate(0,0)" fill="none" stroke-opacity="1"><rect width="0" height="15.625"/></g></g><g width="123.667" height="68.333" transform="scale(1,1) translate(196.5,424.167)"><g stroke="#7F7F7F" opacity="1" stroke-width="1" stroke-dasharray="none" width="123.667" height="68.333" transform="scale(1,1) translate(0,0)" fill="url(#6d4100b1-15c2-4966-b6dd-e20c7072a22d)" stroke-opacity="1" filter="url(#c006f326-dfd7-4bc4-b755-1defd9cddbbb)"><linearGradient id="6d4100b1-15c2-4966-b6dd-e20c7072a22d" x1="61.8335" y1="0" x2="61.8335" y2="68.333" gradientUnits="userSpaceOnUse"><stop offset="0%" style="stop-color:#E1E8F2;stop-opacity:1;"/><stop offset="100%" style="stop-color:#D8E2F0;stop-opacity:1;"/></linearGradient><rect width="123.667" height="68.333"/></g><g transform="scale(1,1) translate(0,0)" fill="url(#129326b0-4408-4004-a8b6-64297f79d512)" stroke="#E1E8F2" filter="url(#2baef1ef-3524-42eb-90ab-492304c09943)"><linearGradient id="129326b0-4408-4004-a8b6-64297f79d512" x1="61.833499908447266" y1="0.5" x2="61.833499908447266" y2="67.83300018310547" gradientUnits="userSpaceOnUse"><stop offset="0%" style="stop-color:#E1E8F2;stop-opacity:1;"/><stop offset="100%" style="stop-color:#D8E2F0;stop-opacity:1;"/></linearGradient><path d="M0.5,0.5 L27.167,0.5 L27.167,34.667 L0.5,34.667 z M27.167,0.5 L123.167,0.5 L123.167,34.667 L27.167,34.667 z M0.5,34.667 L123.167,34.667 L123.167,67.833 L0.5,67.833 z" stroke-width="0" stroke-dasharray="none"/></g><g width="22.5" height="29.166666666666664" transform="scale(1,1) translate(2.5,2.5)"><text width="22.5" height="14.583331108093262" transform="scale(1,1) translate(0,7.291667779286701)" xml:space="preserve"><tspan xml:space="preserve" text-rendering="optimizeSpeed" style="font-family: Arial,Helvetica Neue,Helvetica,sans-serif;" font-size="12.5" font-weight="normal" font-style="normal" fill="#333333" opacity="1" x="7.604" text-anchor="start" y="11.458" textLength="7.291666030883789">2</tspan></text></g><g width="91.99999999999999" height="29.166666666666664" transform="scale(1,1) translate(29.167,2.5)"><text width="91.99999999999999" height="29.166662216186523" transform="scale(1,1) translate(0,0.0000022252400704303454)" xml:space="preserve"><tspan xml:space="preserve" text-rendering="optimizeSpeed" style="font-family: Arial,Helvetica Neue,Helvetica,sans-serif;" font-size="12.5" font-weight="normal" font-style="normal" fill="#333333" opacity="1" x="22.563" text-anchor="start" y="11.458" textLength="43.74999237060547">Tallying</tspan><tspan xml:space="preserve" text-rendering="optimizeSpeed" style="font-family: Arial,Helvetica Neue,Helvetica,sans-serif;" font-size="12.5" font-weight="normal" font-style="normal" fill="#333333" opacity="1" x="21.521" text-anchor="start" y="26.042" textLength="48.95832443237305">Authority</tspan></text></g><g width="118.66666666666666" height="29.166666666666664" transform="scale(1,1) translate(2.5,36.667)"><text width="118.66666666666666" height="14.583331108093262" transform="scale(1,1) translate(0,7.291667779286701)" xml:space="preserve"><tspan xml:space="preserve" text-rendering="optimizeSpeed" style="font-family: Arial,Helvetica Neue,Helvetica,sans-serif;" font-size="12.5" font-weight="bold" font-style="normal" fill="#333333" opacity="1" x="12.979" text-anchor="start" y="11.458" textLength="89.58332061767578">Counting votes</tspan></text></g><g transform="scale(1,1) translate(0,0)" fill="#7F7F7F" stroke="#7F7F7F" stroke-opacity="1"><path d="M0.5,34.167 L123.167,34.167" fill="none" stroke-width="1" stroke-dasharray="none"/><g><g stroke-dasharray="none"><path d="M-0.5,33.167L1.5,33.167L1.5,35.167L-0.5,35.167z" stroke-width="0" fill="none"/></g></g></g><g transform="scale(1,1) translate(0,0)" fill="#7F7F7F" stroke="#7F7F7F" stroke-opacity="1"><path d="M27.083,0.5 L27.083,34.667" fill="none" stroke-width="1" stroke-dasharray="none"/><g><g stroke-dasharray="none"><path d="M26.083,-0.5L28.083,-0.5L28.083,1.5L26.083,1.5z" stroke-width="0" fill="none"/></g></g></g><g stroke="white" fill="none" stroke-opacity="0" stroke-width="3" stroke-dasharray="none" width="3" height="67.333" transform="scale(1,1) translate(3.5,0.5)"><rect width="3" height="67.333"/></g><g stroke="white" fill="none" stroke-opacity="0" stroke-width="3" stroke-dasharray="none" width="122.667" height="3" transform="scale(1,1) translate(0.5,3.5)"><rect width="122.667" height="3"/></g></g><g width="81.25" height="59.167" transform="scale(1,1) translate(315.451,382.083)"><g fill="#545454" stroke="#545454" stroke-opacity="1" transform="scale(1,1) translate(0,0)"><path fill="none" stroke-width="1" stroke-dasharray="none" d="M3.568,49.831 A84.717,84.717 0 0,1 71.27,0.531"/><g><g stroke-dasharray="none"><path d="M8.238,51.616L-0.002,59.172L-1.103,48.046z" stroke="none" fill-opacity="1"/></g><g stroke-dasharray="none"><path d="M71.005,-4.463L81.256,0L71.535,5.523z" stroke="none" fill-opacity="1"/></g></g></g></g><g width="74.826" height="58.333" transform="scale(1,1) translate(316.84,400)"><g fill="#545454" stroke="#545454" stroke-opacity="1" transform="scale(1,1) translate(0,0)"><path fill="none" stroke-width="1" stroke-dasharray="none" d="M5.263,49.833 A123.341,123.341 0 0,1 65.299,3.03"/><g><g stroke-dasharray="none"><path d="M9.514,52.465L-0.001,58.335L1.011,47.201z" stroke="none" fill-opacity="1"/></g><g stroke-dasharray="none"><path d="M63.784,-1.735L74.829,-0.001L66.814,7.795z" stroke="none" fill-opacity="1"/></g></g></g></g><g width="82.887" height="66.833" transform="scale(1,1) translate(308.78,491.5)"><g fill="#545454" stroke="#545454" stroke-opacity="1" transform="scale(1,1) translate(0,0)"><path fill="none" stroke-width="1" stroke-dasharray="none" d="M9.491,3.144 A138.418,138.418 0 0,1 77.802,58.225"/><g><g stroke-dasharray="none"><path d="M7.918,7.89L-0.002,-0.001L11.063,-1.602z" stroke="none" fill-opacity="1"/></g><g stroke-dasharray="none"><path d="M82.107,55.682L82.888,66.835L73.497,60.768z" stroke="none" fill-opacity="1"/></g></g></g></g></g></svg>