<?xml version="1.0" standalone="no"?><!DOCTYPE svg PUBLIC "-//W3C//DTD SVG 1.1//EN" "http://www.w3.org/Graphics/SVG/1.1/DTD/svg11.dtd"><svg xmlns="http://www.w3.org/2000/svg" version="1.1" width="1008.667" height="762.837" xmlns:xlink="http://www.w3.org/1999/xlink" xlink="http://www.w3.org/1999/xlink" style="position:relative;overflow:hidden;" viewBox="-12 -12 1008.667 762.837"><defs><filter id="493d1ba2-02b5-4573-ae10-299c30e2e3c2" x="-0.5" y="-0.5" width="2" height="2"><feFlood flood-color="#000" flood-opacity="0.6" result="flood"/><feComposite in="flood" in2="SourceAlpha" operator="in" result="mask"/><feGaussianBlur in="mask" stdDeviation="2"/><feOffset dx="1.25" dy="1.25" result="oEffect0"/><feMerge><feMergeNode in="oEffect0"/><feMergeNode in="SourceGraphic"/></feMerge></filter><filter id="37d94794-9d2e-4d7a-b84d-150e6ce47476" x="-0.5" y="-0.5" width="2" height="2"><feMerge><feMergeNode in="SourceGraphic"/></feMerge></filter></defs><g><g width="984.333" height="46.833" transform="scale(1,1) translate(7.333,11.667)"><g stroke="#000000" opacity="1" stroke-width="0" stroke-dasharray="none" width="984.333" height="46.833" transform="scale(1,1) translate(0,0)" fill="#7F7F7F" fill-opacity="1" stroke-opacity="1"><rect width="984.333" height="46.833"/></g><g width="984.3333333333333" height="46.83333333333333" transform="scale(1,1) translate(0,0)"><text width="984.3333333333333" height="23.958330154418945" transform="scale(1,1) translate(0,11.437501589457192)" xml:space="preserve"><tspan xml:space="preserve" text-rendering="optimizeSpeed" style="font-family: Arial,Helvetica Neue,Helvetica,sans-serif;" font-size="22.22222222222222" font-weight="bold" font-style="normal" fill="#FFFFFF" opacity="1" x="266.646" text-anchor="start" y="19.792" textLength="451.0415954589844">Control Flow Block Diagram - SecureBallot</tspan></text></g></g><g width="123.667" height="109" transform="scale(1,1) translate(391.333,152)"><g stroke="#7F7F7F" opacity="1" stroke-width="1" stroke-dasharray="none" width="123.667" height="109" transform="scale(1,1) translate(0,0)" fill="url(#64c9ba42-1bf8-4565-9918-836d4b540732)" stroke-opacity="1" filter="url(#493d1ba2-02b5-4573-ae10-299c30e2e3c2)"><linearGradient id="64c9ba42-1bf8-4565-9918-836d4b540732" x1="61.8335" y1="0" x2="61.8335" y2="109" gradientUnits="userSpaceOnUse"><stop offset="0%" style="stop-color:#E1E8F2;stop-opacity:1;"/><stop offset="100%" style="stop-color:#D8E2F0;stop-opacity:1;"/></linearGradient><rect width="123.667" height="109"/></g><g transform="scale(1,1) translate(0,0)" fill="url(#0f12ec88-09a4-48e3-928e-9e7595115c59)" stroke="#E1E8F2" filter="url(#37d94794-9d2e-4d7a-b84d-150e6ce47476)"><linearGradient id="0f12ec88-09a4-48e3-928e-9e7595115c59" x1="61.833499908447266" y1="0.5" x2="61.833499908447266" y2="108.5" gradientUnits="userSpaceOnUse"><stop offset="0%" style="stop-color:#E1E8F2;stop-opacity:1;"/><stop offset="100%" style="stop-color:#D8E2F0;stop-opacity:1;"/></linearGradient><path d="M0.5,0.5 L27.167,0.5 L27.167,52.5 L0.5,52.5 z M27.167,0.5 L123.167,0.5 L123.167,52.5 L27.167,52.5 z M0.5,52.5 L123.167,52.5 L123.167,108.5 L0.5,108.5 z" stroke-width="0" stroke-dasharray="none"/></g><g width="22.5" height="47" transform="scale(1,1) translate(2.5,2.5)"><text width="22.5" height="17.708330154418945" transform="scale(1,1) translate(0,14.645834922790527)" xml:space="preserve"><tspan xml:space="preserve" text-rendering="optimizeSpeed" style="font-family: Arial,Helvetica Neue,Helvetica,sans-serif;" font-size="12.5" font-weight="normal" font-style="normal" fill="#333333" opacity="1" x="7.083" text-anchor="start" y="14.583" textLength="8.333332061767578">1</tspan></text></g><g width="91.99999999999999" height="53.124990463256836" transform="scale(1,1) translate(29.167,2.5)"><text width="91.99999999999999" height="53.124990463256836" transform="scale(1,1) translate(0,0)" xml:space="preserve"><tspan xml:space="preserve" text-rendering="optimizeSpeed" style="font-family: Arial,Helvetica Neue,Helvetica,sans-serif;" font-size="12.5" font-weight="normal" font-style="normal" fill="#333333" opacity="1" x="0" text-anchor="start" y="14.583" textLength="89.58332061767578">Key provided</tspan><tspan xml:space="preserve" text-rendering="optimizeSpeed" style="font-family: Arial,Helvetica Neue,Helvetica,sans-serif;" font-size="12.5" font-weight="normal" font-style="normal" fill="#333333" opacity="1" x="35.583" text-anchor="start" y="32.292" textLength="16.666664123535156">by</tspan><tspan xml:space="preserve" text-rendering="optimizeSpeed" style="font-family: Arial,Helvetica Neue,Helvetica,sans-serif;" font-size="12.5" font-weight="normal" font-style="normal" fill="#333333" opacity="1" x="7.979" text-anchor="start" y="50" textLength="71.87498474121094">Authorities</tspan></text></g><g width="118.66666666666666" height="52" transform="scale(1,1) translate(2.5,54.5)"><text width="118.66666666666666" height="17.708330154418945" transform="scale(1,1) translate(0,17.145834922790527)" xml:space="preserve"><tspan xml:space="preserve" text-rendering="optimizeSpeed" style="font-family: Arial,Helvetica Neue,Helvetica,sans-serif;" font-size="12.5" font-weight="bold" font-style="normal" fill="#333333" opacity="1" x="21.833" text-anchor="start" y="14.583" textLength="74.99999237060547"> Encrypter</tspan></text></g><g transform="scale(1,1) translate(0,0)" fill="#7F7F7F" stroke="#7F7F7F" stroke-opacity="1"><path d="M0.5,52 L123.167,52" fill="none" stroke-width="1" stroke-dasharray="none"/><g><g stroke-dasharray="none"><path d="M-0.5,51L1.5,51L1.5,53L-0.5,53z" stroke-width="0" fill="none"/></g></g></g><g transform="scale(1,1) translate(0,0)" fill="#7F7F7F" stroke="#7F7F7F" stroke-opacity="1"><path d="M27.083,0.5 L27.083,52.5" fill="none" stroke-width="1" stroke-dasharray="none"/><g><g stroke-dasharray="none"><path d="M26.083,-0.5L28.083,-0.5L28.083,1.5L26.083,1.5z" stroke-width="0" fill="none"/></g></g></g><g stroke="white" fill="none" stroke-opacity="0" stroke-width="3" stroke-dasharray="none" width="3" height="108" transform="scale(1,1) translate(3.5,0.5)"><rect width="3" height="108"/></g><g stroke="white" fill="none" stroke-opacity="0" stroke-width="3" stroke-dasharray="none" width="122.667" height="3" transform="scale(1,1) translate(0.5,3.5)"><rect width="122.667" height="3"/></g></g><g width="123.667" height="74.583" transform="scale(1,1) translate(391.333,365)"><g stroke="#7F7F7F" opacity="1" stroke-width="1" stroke-dasharray="none" width="123.667" height="74.583" transform="scale(1,1) translate(0,0)" fill="url(#0918711f-26ca-4b9f-a600-39c91afc68c6)" stroke-opacity="1" filter="url(#493d1ba2-02b5-4573-ae10-299c30e2e3c2)"><linearGradient id="0918711f-26ca-4b9f-a600-39c91afc68c6" x1="61.8335" y1="0" x2="61.8335" y2="74.583" gradientUnits="userSpaceOnUse"><stop offset="0%" style="stop-color:#E1E8F2;stop-opacity:1;"/><stop offset="100%" style="stop-color:#D8E2F0;stop-opacity:1;"/></linearGradient><rect width="123.667" height="74.583"/></g><g transform="scale(1,1) translate(0,0)" fill="url(#8a9da9ff-31d3-4ac5-8bd1-595c03b78fa5)" stroke="#E1E8F2" filter="url(#37d94794-9d2e-4d7a-b84d-150e6ce47476)"><linearGradient id="8a9da9ff-31d3-4ac5-8bd1-595c03b78fa5" x1="61.833499908447266" y1="0.5" x2="61.833499908447266" y2="74.08300018310547" gradientUnits="userSpaceOnUse"><stop offset="0%" style="stop-color:#E1E8F2;stop-opacity:1;"/><stop offset="100%" style="stop-color:#D8E2F0;stop-opacity:1;"/></linearGradient><path d="M0.5,0.5 L27.167,0.5 L27.167,40.917 L0.5,40.917 z M27.167,0.5 L123.167,0.5 L123.167,40.917 L27.167,40.917 z M0.5,40.917 L123.167,40.917 L123.167,74.083 L0.5,74.083 z" stroke-width="0" stroke-dasharray="none"/></g><g width="22.5" height="35.41666030883789" transform="scale(1,1) translate(2.5,2.5)"><text width="22.5" height="17.708330154418945" transform="scale(1,1) translate(0,8.854165077209473)" xml:space="preserve"><tspan xml:space="preserve" text-rendering="optimizeSpeed" style="font-family: Arial,Helvetica Neue,Helvetica,sans-serif;" font-size="12.5" font-weight="normal" font-style="normal" fill="#333333" opacity="1" x="7.083" text-anchor="start" y="14.583" textLength="8.333332061767578">2</tspan></text></g><g width="92" height="35.41666030883789" transform="scale(1,1) translate(29.167,2.5)"><text width="92" height="35.41666030883789" transform="scale(1,1) translate(0,0)" xml:space="preserve"><tspan xml:space="preserve" text-rendering="optimizeSpeed" style="font-family: Arial,Helvetica Neue,Helvetica,sans-serif;" font-size="12.5" font-weight="normal" font-style="normal" fill="#333333" opacity="1" x="16.833" text-anchor="start" y="14.583" textLength="54.166656494140625">Decrypt</tspan><tspan xml:space="preserve" text-rendering="optimizeSpeed" style="font-family: Arial,Helvetica Neue,Helvetica,sans-serif;" font-size="12.5" font-weight="normal" font-style="normal" fill="#333333" opacity="1" x="10.063" text-anchor="start" y="32.292" textLength="71.8749885559082">responses</tspan></text></g><g width="118.66666666666666" height="29.166666666666664" transform="scale(1,1) translate(2.5,42.917)"><text width="118.66666666666666" height="17.708330154418945" transform="scale(1,1) translate(0,5.7291682561238595)" xml:space="preserve"><tspan xml:space="preserve" text-rendering="optimizeSpeed" style="font-family: Arial,Helvetica Neue,Helvetica,sans-serif;" font-size="12.5" font-weight="bold" font-style="normal" fill="#333333" opacity="1" x="23.917" text-anchor="start" y="14.583" textLength="70.83332824707031">Decrypter</tspan></text></g><g transform="scale(1,1) translate(0,0)" fill="#7F7F7F" stroke="#7F7F7F" stroke-opacity="1"><path d="M0.5,40.417 L123.167,40.417" fill="none" stroke-width="1" stroke-dasharray="none"/><g><g stroke-dasharray="none"><path d="M-0.5,39.417L1.5,39.417L1.5,41.417L-0.5,41.417z" stroke-width="0" fill="none"/></g></g></g><g transform="scale(1,1) translate(0,0)" fill="#7F7F7F" stroke="#7F7F7F" stroke-opacity="1"><path d="M27.083,0.5 L27.083,40.917" fill="none" stroke-width="1" stroke-dasharray="none"/><g><g stroke-dasharray="none"><path d="M26.083,-0.5L28.083,-0.5L28.083,1.5L26.083,1.5z" stroke-width="0" fill="none"/></g></g></g><g stroke="white" fill="none" stroke-opacity="0" stroke-width="3" stroke-dasharray="none" width="3" height="73.583" transform="scale(1,1) translate(3.5,0.5)"><rect width="3" height="73.583"/></g><g stroke="white" fill="none" stroke-opacity="0" stroke-width="3" stroke-dasharray="none" width="122.667" height="3" transform="scale(1,1) translate(0.5,3.5)"><rect width="122.667" height="3"/></g></g><g width="131.333" height="65.333" transform="scale(1,1) translate(201,92.333)"><g width="131.333" height="65.333" transform="scale(1,1) translate(0,0)" stroke="#7F7F7F" stroke-width="1" stroke-dasharray="none" fill="url(#4886a14d-3651-408b-97cc-69f8c4893424)" stroke-opacity="1" filter="url(#493d1ba2-02b5-4573-ae10-299c30e2e3c2)"><linearGradient id="4886a14d-3651-408b-97cc-69f8c4893424" x1="65.6665" y1="0" x2="65.6665" y2="65.333" gradientUnits="userSpaceOnUse"><stop offset="0%" style="stop-color:#92B0CF;stop-opacity:1;"/><stop offset="100%" style="stop-color:#8CA8CD;stop-opacity:1;"/></linearGradient><ellipse rx="65.6665" ry="32.6665" cx="65.6665" cy="32.6665"/></g><g width="88" height="41.33333333333333" transform="scale(1,1) translate(21.667,12)"><text width="88" height="17.708330154418945" transform="scale(1,1) translate(0,11.812501589457192)" xml:space="preserve"><tspan xml:space="preserve" text-rendering="optimizeSpeed" style="font-family: Arial,Helvetica Neue,Helvetica,sans-serif;" font-size="12.5" font-weight="bold" font-style="normal" fill="#333333" opacity="1" x="25.25" text-anchor="start" y="14.583" textLength="37.49999237060547">Voter</tspan></text></g></g><g width="116.667" height="57.146" transform="scale(1,1) translate(616.667,263.094)"><g stroke="#7F7F7F" opacity="1" stroke-width="1" stroke-dasharray="none" width="116.667" height="57.146" transform="scale(1,1) translate(0,0)" fill="url(#4c9512f9-885d-4d8f-a983-9c1e6bf7a014)" stroke-opacity="1" filter="url(#37d94794-9d2e-4d7a-b84d-150e6ce47476)"><linearGradient id="4c9512f9-885d-4d8f-a983-9c1e6bf7a014" x1="58.3335" y1="0" x2="58.3335" y2="57.146" gradientUnits="userSpaceOnUse"><stop offset="0%" style="stop-color:#EAE6D5;stop-opacity:1;"/><stop offset="100%" style="stop-color:#E8E1C3;stop-opacity:1;"/></linearGradient><rect width="116.667" height="57.146"/></g><g width="111.66666668653477" height="52.14583094914753" transform="scale(1,1) translate(2.5,2.5)"><text width="111.66666668653477" height="35.41666030883789" transform="scale(1,1) translate(0,8.36458532015482)" xml:space="preserve"><tspan xml:space="preserve" text-rendering="optimizeSpeed" style="font-family: Arial,Helvetica Neue,Helvetica,sans-serif;" font-size="12.5" font-weight="normal" font-style="normal" fill="#333333" opacity="1" x="10" text-anchor="start" y="14.583" textLength="87.49998474121094">   Blockchain</tspan><tspan xml:space="preserve" text-rendering="optimizeSpeed" style="font-family: Arial,Helvetica Neue,Helvetica,sans-serif;" font-size="12.5" font-weight="normal" font-style="normal" fill="#333333" opacity="1" x="18.854" text-anchor="start" y="32.292" textLength="73.95832824707031">  Database</tspan></text></g></g><g width="136.167" height="0" transform="scale(1,1) translate(555.667,265)"><g transform="scale(1,1) translate(0,0)" fill="#545454" stroke="#545454" stroke-opacity="1"><path d="M0,0 L136.167,0" fill="none" stroke-width="1" stroke-dasharray="none"/><g><g stroke-dasharray="none"><path d="M-1,-1L1,-1L1,1L-1,1z" stroke-width="0" fill="none"/></g></g></g></g><g width="0" height="53.333" transform="scale(1,1) translate(556.667,264)"><g transform="scale(1,1) translate(0,0)" fill="#545454" stroke="#545454" stroke-opacity="1"><path d="M0,0 L0,53.333" fill="none" stroke-width="1" stroke-dasharray="none"/><g><g stroke-dasharray="none"><path d="M-1,-1L1,-1L1,1L-1,1z" stroke-width="0" fill="none"/></g></g></g></g><g width="136.167" height="0" transform="scale(1,1) translate(557,317)"><g transform="scale(1,1) translate(0,0)" fill="#545454" stroke="#545454" stroke-opacity="1"><path d="M0,0 L136.167,0" fill="none" stroke-width="1" stroke-dasharray="none"/><g><g stroke-dasharray="none"><path d="M-1,-1L1,-1L1,1L-1,1z" stroke-width="0" fill="none"/></g></g></g></g><g width="61.833" height="54.667" transform="scale(1,1) translate(560.75,264.333)"><g stroke="#7F7F7F" opacity="1" stroke-width="1" stroke-dasharray="none" width="61.833" height="54.667" transform="scale(1,1) translate(0,0)" fill="url(#b162d47d-2ed4-4546-bda5-ca6e000062cf)" stroke-opacity="1" filter="url(#37d94794-9d2e-4d7a-b84d-150e6ce47476)"><linearGradient id="b162d47d-2ed4-4546-bda5-ca6e000062cf" x1="30.9165" y1="0" x2="30.9165" y2="54.667" gradientUnits="userSpaceOnUse"><stop offset="0%" style="stop-color:#EAE6D5;stop-opacity:1;"/><stop offset="100%" style="stop-color:#E8E1C3;stop-opacity:1;"/></linearGradient><rect width="61.833" height="54.667"/></g><g width="56.83333333333333" height="49.666666666666664" transform="scale(1,1) translate(2.5,2.5)"><text width="56.83333333333333" height="35.41666030883789" transform="scale(1,1) translate(0,7.125003178914387)" xml:space="preserve"><tspan xml:space="preserve" text-rendering="optimizeSpeed" style="font-family: Arial,Helvetica Neue,Helvetica,sans-serif;" font-size="12.5" font-weight="bold" font-style="normal" fill="#333333" opacity="1" x="2.896" text-anchor="start" y="14.583" textLength="51.04166030883789">Decent</tspan><tspan xml:space="preserve" text-rendering="optimizeSpeed" style="font-family: Arial,Helvetica Neue,Helvetica,sans-serif;" font-size="12.5" font-weight="bold" font-style="normal" fill="#333333" opacity="1" x="3.938" text-anchor="start" y="32.292" textLength="48.95832443237305">ralised</tspan></text></g></g><g width="150.172" height="58.125" transform="scale(1,1) translate(591.331,673.188)"><g stroke="#7F7F7F" opacity="1" stroke-width="1" stroke-dasharray="none" width="150.172" height="58.125" transform="scale(1,1) translate(0,0)" fill="url(#6e00d8ad-99f3-49f9-a78e-ccf91cd526bf)" stroke-opacity="1" filter="url(#37d94794-9d2e-4d7a-b84d-150e6ce47476)"><linearGradient id="6e00d8ad-99f3-49f9-a78e-ccf91cd526bf" x1="75.086" y1="0" x2="75.086" y2="58.125" gradientUnits="userSpaceOnUse"><stop offset="0%" style="stop-color:#EAE6D5;stop-opacity:1;"/><stop offset="100%" style="stop-color:#E8E1C3;stop-opacity:1;"/></linearGradient><rect width="150.172" height="58.125"/></g><g width="145.17150532936074" height="53.124990463256836" transform="scale(1,1) translate(2.5,2.5)"><text width="145.17150532936074" height="53.124990463256836" transform="scale(1,1) translate(0,0)" xml:space="preserve"><tspan xml:space="preserve" text-rendering="optimizeSpeed" style="font-family: Arial,Helvetica Neue,Helvetica,sans-serif;" font-size="12.5" font-weight="normal" font-style="normal" fill="#333333" opacity="1" x="31.961" text-anchor="start" y="14.583" textLength="77.08332061767578">        Result</tspan><tspan xml:space="preserve" text-rendering="optimizeSpeed" style="font-family: Arial,Helvetica Neue,Helvetica,sans-serif;" font-size="12.5" font-weight="normal" font-style="normal" fill="#333333" opacity="1" x="34.044" text-anchor="start" y="32.292" textLength="77.08331298828125">Declaration</tspan></text></g></g><g width="136.167" height="0" transform="scale(1,1) translate(596.667,677)"><g transform="scale(1,1) translate(0,0)" fill="#545454" stroke="#545454" stroke-opacity="1"><path d="M0,0 L136.167,0" fill="none" stroke-width="1" stroke-dasharray="none"/><g><g stroke-dasharray="none"><path d="M-1,-1L1,-1L1,1L-1,1z" stroke-width="0" fill="none"/></g></g></g></g><g width="0" height="53.333" transform="scale(1,1) translate(597.667,676)"><g transform="scale(1,1) translate(0,0)" fill="#545454" stroke="#545454" stroke-opacity="1"><path d="M0,0 L0,53.333" fill="none" stroke-width="1" stroke-dasharray="none"/><g><g stroke-dasharray="none"><path d="M-1,-1L1,-1L1,1L-1,1z" stroke-width="0" fill="none"/></g></g></g></g><g width="136.167" height="0" transform="scale(1,1) translate(598,729)"><g transform="scale(1,1) translate(0,0)" fill="#545454" stroke="#545454" stroke-opacity="1"><path d="M0,0 L136.167,0" fill="none" stroke-width="1" stroke-dasharray="none"/><g><g stroke-dasharray="none"><path d="M-1,-1L1,-1L1,1L-1,1z" stroke-width="0" fill="none"/></g></g></g></g><g width="120.833" height="27" transform="scale(1,1) translate(332.333,125)"><g fill="#000000" stroke="#000000" stroke-opacity="1" transform="scale(1,1) translate(0,0)"><path fill="none" stroke-width="1" stroke-dasharray="none" d="M0,0 A76.822,76.822 0 0,1 116.228,18.131"/><g><g stroke-dasharray="none"><path d="M120.666,15.827L120.836,27.006L111.791,20.435z" stroke="none" fill-opacity="1"/></g></g></g></g><g width="110.997" height="58.5" transform="scale(1,1) translate(515,206.5)"><g fill="#000000" stroke="#000000" stroke-opacity="1" transform="scale(1,1) translate(0,0)"><path fill="none" stroke-width="1" stroke-dasharray="none" d="M0,0 A82.051,82.051 0 0,1 108.271,48.885"/><g><g stroke-dasharray="none"><path d="M113.082,47.521L110.999,58.506L103.461,50.249z" stroke="none" fill-opacity="1"/></g></g></g></g><g width="142.25" height="62.729" transform="scale(1,1) translate(524.167,610.458)"><g fill="#000000" stroke="#000000" stroke-opacity="1" transform="scale(1,1) translate(0,0)"><path fill="none" stroke-width="1" stroke-dasharray="none" d="M0,0 A200.679,200.679 0 0,1 135.199,55.639"/><g><g stroke-dasharray="none"><path d="M138.745,52.113L142.251,62.73L131.654,59.165z" stroke="none" fill-opacity="1"/></g></g></g></g><g width="48.958" height="35.417" transform="scale(1,1) translate(366.667,91.667)"><g stroke="#000000" opacity="1" stroke-width="0" stroke-dasharray="none" width="48.958" height="35.417" transform="scale(1,1) translate(0,0)" fill="none" stroke-opacity="1"><rect width="48.958" height="35.417"/></g><g width="48.95832824707031" height="35.41666030883789" transform="scale(1,1) translate(0,0)"><text width="48.95832824707031" height="35.41666030883789" transform="scale(1,1) translate(0,0)" xml:space="preserve"><tspan xml:space="preserve" text-rendering="optimizeSpeed" style="font-family: Arial,Helvetica Neue,Helvetica,sans-serif;" font-size="12.5" font-weight="normal" font-style="normal" fill="#000000" opacity="1" x="0" text-anchor="start" y="14.583" textLength="44.79166030883789">signed</tspan><tspan xml:space="preserve" text-rendering="optimizeSpeed" style="font-family: Arial,Helvetica Neue,Helvetica,sans-serif;" font-size="12.5" font-weight="normal" font-style="normal" fill="#000000" opacity="1" x="0" text-anchor="start" y="32.292" textLength="29.166662216186523">vote</tspan></text></g></g><g width="95.3" height="52.282" transform="scale(1,1) translate(296.034,154.218)"><g fill="#000000" stroke="#000000" stroke-opacity="1" transform="scale(1,1) translate(0,0)"><path fill="none" stroke-width="1" stroke-dasharray="none" d="M-0.083,9.988 A59.243,59.243 0 0,0 95.3,52.282"/><g><g stroke-dasharray="none"><path d="M-5.083,9.946L0,-0.012L4.917,10.029z" stroke="none" fill-opacity="1"/></g></g></g></g><g width="123.958" height="17.708" transform="scale(1,1) translate(258.333,217)"><g stroke="#000000" opacity="1" stroke-width="0" stroke-dasharray="none" width="123.958" height="17.708" transform="scale(1,1) translate(0,0)" fill="none" stroke-opacity="1"><rect width="123.958" height="17.708"/></g><g width="123.95831298828125" height="17.708330154418945" transform="scale(1,1) translate(0,0)"><text width="123.95831298828125" height="17.708330154418945" transform="scale(1,1) translate(0,0)" xml:space="preserve"><tspan xml:space="preserve" text-rendering="optimizeSpeed" style="font-family: Arial,Helvetica Neue,Helvetica,sans-serif;" font-size="12.5" font-weight="normal" font-style="normal" fill="#000000" opacity="1" x="0" text-anchor="start" y="14.583" textLength="123.95831298828125">acknowledgement</tspan></text></g></g><g width="208.167" height="17.708" transform="scale(1,1) translate(571,192)"><g stroke="#000000" opacity="1" stroke-width="0" stroke-dasharray="none" width="208.167" height="17.708" transform="scale(1,1) translate(0,0)" fill="none" stroke-opacity="1"><rect width="208.167" height="17.708"/></g><g width="208.16666666666666" height="17.708330154418945" transform="scale(1,1) translate(0,0)"><text width="208.16666666666666" height="17.708330154418945" transform="scale(1,1) translate(0,0)" xml:space="preserve"><tspan xml:space="preserve" text-rendering="optimizeSpeed" style="font-family: Arial,Helvetica Neue,Helvetica,sans-serif;" font-size="12.5" font-weight="normal" font-style="normal" fill="#000000" opacity="1" x="0" text-anchor="start" y="14.583" textLength="104.16665649414062">Encrypted Vote</tspan></text></g></g><g width="107.583" height="73.333" transform="scale(1,1) translate(453.167,291.667)"><g fill="#000000" stroke="#000000" stroke-opacity="1" transform="scale(1,1) translate(0,0)"><path fill="none" stroke-width="1" stroke-dasharray="none" d="M1.862,63.513 A87.235,87.235 0 0,1 107.583,0"/><g><g stroke-dasharray="none"><path d="M6.774,64.445L-0.001,73.338L-3.051,62.582z" stroke="none" fill-opacity="1"/></g></g></g></g><g width="123.667" height="80.833" transform="scale(1,1) translate(400.5,549.833)"><g stroke="#7F7F7F" opacity="1" stroke-width="1" stroke-dasharray="none" width="123.667" height="80.833" transform="scale(1,1) translate(0,0)" fill="url(#c5ef6d2f-62f0-47be-a71f-817df890b03f)" stroke-opacity="1" filter="url(#493d1ba2-02b5-4573-ae10-299c30e2e3c2)"><linearGradient id="c5ef6d2f-62f0-47be-a71f-817df890b03f" x1="61.8335" y1="0" x2="61.8335" y2="80.833" gradientUnits="userSpaceOnUse"><stop offset="0%" style="stop-color:#E1E8F2;stop-opacity:1;"/><stop offset="100%" style="stop-color:#D8E2F0;stop-opacity:1;"/></linearGradient><rect width="123.667" height="80.833"/></g><g transform="scale(1,1) translate(0,0)" fill="url(#9dd61594-13ec-401a-9bf4-b6dae16f1a24)" stroke="#E1E8F2" filter="url(#37d94794-9d2e-4d7a-b84d-150e6ce47476)"><linearGradient id="9dd61594-13ec-401a-9bf4-b6dae16f1a24" x1="61.833499908447266" y1="0.5" x2="61.833499908447266" y2="80.33300018310547" gradientUnits="userSpaceOnUse"><stop offset="0%" style="stop-color:#E1E8F2;stop-opacity:1;"/><stop offset="100%" style="stop-color:#D8E2F0;stop-opacity:1;"/></linearGradient><path d="M0.5,0.5 L27.167,0.5 L27.167,40.917 L0.5,40.917 z M27.167,0.5 L123.167,0.5 L123.167,40.917 L27.167,40.917 z M0.5,40.917 L123.167,40.917 L123.167,80.333 L0.5,80.333 z" stroke-width="0" stroke-dasharray="none"/></g><g width="22.5" height="35.41666030883789" transform="scale(1,1) translate(2.5,2.5)"><text width="22.5" height="17.708330154418945" transform="scale(1,1) translate(0,8.854165077209473)" xml:space="preserve"><tspan xml:space="preserve" text-rendering="optimizeSpeed" style="font-family: Arial,Helvetica Neue,Helvetica,sans-serif;" font-size="12.5" font-weight="normal" font-style="normal" fill="#333333" opacity="1" x="7.083" text-anchor="start" y="14.583" textLength="8.333332061767578">3</tspan></text></g><g width="91.99999999999999" height="35.41666030883789" transform="scale(1,1) translate(29.167,2.5)"><text width="91.99999999999999" height="35.41666030883789" transform="scale(1,1) translate(0,0)" xml:space="preserve"><tspan xml:space="preserve" text-rendering="optimizeSpeed" style="font-family: Arial,Helvetica Neue,Helvetica,sans-serif;" font-size="12.5" font-weight="normal" font-style="normal" fill="#333333" opacity="1" x="2.25" text-anchor="start" y="14.583" textLength="83.33332061767578">Independent</tspan><tspan xml:space="preserve" text-rendering="optimizeSpeed" style="font-family: Arial,Helvetica Neue,Helvetica,sans-serif;" font-size="12.5" font-weight="normal" font-style="normal" fill="#333333" opacity="1" x="10.063" text-anchor="start" y="32.292" textLength="71.87498474121094">Authorities</tspan></text></g><g width="118.66666666666666" height="35.41666030883789" transform="scale(1,1) translate(2.5,42.917)"><text width="118.66666666666666" height="35.41666030883789" transform="scale(1,1) translate(0,0)" xml:space="preserve"><tspan xml:space="preserve" text-rendering="optimizeSpeed" style="font-family: Arial,Helvetica Neue,Helvetica,sans-serif;" font-size="12.5" font-weight="bold" font-style="normal" fill="#333333" opacity="1" x="20.271" text-anchor="start" y="14.583" textLength="78.12498474121094">Verify Tally</tspan></text></g><g transform="scale(1,1) translate(0,0)" fill="#7F7F7F" stroke="#7F7F7F" stroke-opacity="1"><path d="M0.5,40.417 L123.167,40.417" fill="none" stroke-width="1" stroke-dasharray="none"/><g><g stroke-dasharray="none"><path d="M-0.5,39.417L1.5,39.417L1.5,41.417L-0.5,41.417z" stroke-width="0" fill="none"/></g></g></g><g transform="scale(1,1) translate(0,0)" fill="#7F7F7F" stroke="#7F7F7F" stroke-opacity="1"><path d="M27.083,0.5 L27.083,40.917" fill="none" stroke-width="1" stroke-dasharray="none"/><g><g stroke-dasharray="none"><path d="M26.083,-0.5L28.083,-0.5L28.083,1.5L26.083,1.5z" stroke-width="0" fill="none"/></g></g></g><g stroke="white" fill="none" stroke-opacity="0" stroke-width="3" stroke-dasharray="none" width="3" height="79.833" transform="scale(1,1) translate(3.5,0.5)"><rect width="3" height="79.833"/></g><g stroke="white" fill="none" stroke-opacity="0" stroke-width="3" stroke-dasharray="none" width="122.667" height="3" transform="scale(1,1) translate(0.5,3.5)"><rect width="122.667" height="3"/></g></g><g width="209.167" height="298.583" transform="scale(1,1) translate(524.167,291.667)"><g fill="#000000" stroke="#000000" stroke-opacity="1" transform="scale(1,1) translate(0,0)"><path fill="none" stroke-width="1" stroke-dasharray="none" d="M0,298.583 A182.353,182.353 0 0,0 217.026,6.182"/><g><g stroke-dasharray="none"><path d="M213.935,10.112L209.166,-0.001L220.117,2.252z" stroke="none" fill-opacity="1"/></g></g></g></g><g width="128.125" height="35.417" transform="scale(1,1) translate(722.667,418.833)"><g stroke="#000000" opacity="1" stroke-width="0" stroke-dasharray="none" width="128.125" height="35.417" transform="scale(1,1) translate(0,0)" fill="#FFFFFF" fill-opacity="1" stroke-opacity="1"><rect width="128.125" height="35.417"/></g><g width="128.12498474121094" height="35.41666030883789" transform="scale(1,1) translate(0,0)"><text width="128.12498474121094" height="35.41666030883789" transform="scale(1,1) translate(0,0)" xml:space="preserve"><tspan xml:space="preserve" text-rendering="optimizeSpeed" style="font-family: Arial,Helvetica Neue,Helvetica,sans-serif;" font-size="12.5" font-weight="normal" font-style="normal" fill="#000000" opacity="1" x="0" text-anchor="start" y="14.583" textLength="128.12498474121094">request blockchain</tspan><tspan xml:space="preserve" text-rendering="optimizeSpeed" style="font-family: Arial,Helvetica Neue,Helvetica,sans-serif;" font-size="12.5" font-weight="normal" font-style="normal" fill="#000000" opacity="1" x="0" text-anchor="start" y="32.292" textLength="79.16665649414062"> information</tspan></text></g></g><g width="165.833" height="17.708" transform="scale(1,1) translate(533.667,624)"><g stroke="#000000" opacity="1" stroke-width="0" stroke-dasharray="none" width="165.833" height="17.708" transform="scale(1,1) translate(0,0)" fill="#FFFFFF" fill-opacity="1" stroke-opacity="1"><rect width="165.833" height="17.708"/></g><g width="165.83333333333331" height="17.708330154418945" transform="scale(1,1) translate(0,0)"><text width="165.83333333333331" height="17.708330154418945" transform="scale(1,1) translate(0,0)" xml:space="preserve"><tspan xml:space="preserve" text-rendering="optimizeSpeed" style="font-family: Arial,Helvetica Neue,Helvetica,sans-serif;" font-size="12.5" font-weight="normal" font-style="normal" fill="#000000" opacity="1" x="0" text-anchor="start" y="14.583" textLength="126.0416488647461">          inform count</tspan></text></g></g><g width="182.418" height="229.594" transform="scale(1,1) translate(521.749,320.24)"><g fill="#545454" stroke="#545454" stroke-opacity="1" transform="scale(1,1) translate(0,0)"><path fill="none" stroke-width="1" stroke-dasharray="none" d="M3.18,220.113 A416.409,416.409 0 0,1 182.418,0"/><g><g stroke-dasharray="none"><path d="M7.92,221.703L0,229.594L-1.561,218.523z" stroke="none" fill-opacity="1"/></g></g></g><g stroke-width="0" stroke-dasharray="none" fill="#FFFFFF" opacity="1" width="79.083" height="37.417" transform="rotate(308.468,70.33,98.208) scale(1,1) translate(30.788,79.5)"><rect width="79.083" height="37.417"/></g><g width="77.08332061767578" height="229.59375437100738" transform="rotate(308.468,70.33,98.208) scale(1,1) translate(31.788,80.5)"><text width="77.08332061767578" height="35.41666030883789" transform="scale(1,1) translate(0,0)" xml:space="preserve"><tspan xml:space="preserve" text-rendering="optimizeSpeed" style="font-family: Arial,Helvetica Neue,Helvetica,sans-serif;" font-size="13.88888888888889" font-weight="normal" font-style="normal" fill="#333333" opacity="1" x="0" text-anchor="start" y="14.583" textLength="72.91665649414062">blockchain</tspan><tspan xml:space="preserve" text-rendering="optimizeSpeed" style="font-family: Arial,Helvetica Neue,Helvetica,sans-serif;" font-size="13.88888888888889" font-weight="normal" font-style="normal" fill="#333333" opacity="1" x="15.104" text-anchor="start" y="32.292" textLength="46.87499237060547">served</tspan></text></g></g><g width="0" height="15.5" transform="scale(1,1) translate(586,394.667)"><g stroke="#545454" opacity="1" stroke-width="0" stroke-dasharray="none" width="0" height="15.5" transform="scale(1,1) translate(0,0)" fill="none" stroke-opacity="1"><rect width="0" height="15.5"/></g></g><g width="123.667" height="74.583" transform="scale(1,1) translate(196.5,424.167)"><g stroke="#7F7F7F" opacity="1" stroke-width="1" stroke-dasharray="none" width="123.667" height="74.583" transform="scale(1,1) translate(0,0)" fill="url(#45a62fc8-ed5b-49fd-8d00-74deea6828e5)" stroke-opacity="1" filter="url(#493d1ba2-02b5-4573-ae10-299c30e2e3c2)"><linearGradient id="45a62fc8-ed5b-49fd-8d00-74deea6828e5" x1="61.8335" y1="0" x2="61.8335" y2="74.583" gradientUnits="userSpaceOnUse"><stop offset="0%" style="stop-color:#E1E8F2;stop-opacity:1;"/><stop offset="100%" style="stop-color:#D8E2F0;stop-opacity:1;"/></linearGradient><rect width="123.667" height="74.583"/></g><g transform="scale(1,1) translate(0,0)" fill="url(#89d966c2-c0ea-4840-a29b-515df1126356)" stroke="#E1E8F2" filter="url(#37d94794-9d2e-4d7a-b84d-150e6ce47476)"><linearGradient id="89d966c2-c0ea-4840-a29b-515df1126356" x1="61.833499908447266" y1="0.5" x2="61.833499908447266" y2="74.08300018310547" gradientUnits="userSpaceOnUse"><stop offset="0%" style="stop-color:#E1E8F2;stop-opacity:1;"/><stop offset="100%" style="stop-color:#D8E2F0;stop-opacity:1;"/></linearGradient><path d="M0.5,0.5 L27.167,0.5 L27.167,40.917 L0.5,40.917 z M27.167,0.5 L123.167,0.5 L123.167,40.917 L27.167,40.917 z M0.5,40.917 L123.167,40.917 L123.167,74.083 L0.5,74.083 z" stroke-width="0" stroke-dasharray="none"/></g><g width="22.5" height="35.41666030883789" transform="scale(1,1) translate(2.5,2.5)"><text width="22.5" height="17.708330154418945" transform="scale(1,1) translate(0,8.854165077209473)" xml:space="preserve"><tspan xml:space="preserve" text-rendering="optimizeSpeed" style="font-family: Arial,Helvetica Neue,Helvetica,sans-serif;" font-size="12.5" font-weight="normal" font-style="normal" fill="#333333" opacity="1" x="7.083" text-anchor="start" y="14.583" textLength="8.333332061767578">2</tspan></text></g><g width="92" height="35.41666030883789" transform="scale(1,1) translate(29.167,2.5)"><text width="92" height="35.41666030883789" transform="scale(1,1) translate(0,0)" xml:space="preserve"><tspan xml:space="preserve" text-rendering="optimizeSpeed" style="font-family: Arial,Helvetica Neue,Helvetica,sans-serif;" font-size="12.5" font-weight="normal" font-style="normal" fill="#333333" opacity="1" x="18.917" text-anchor="start" y="14.583" textLength="49.99999237060547">Tallying</tspan><tspan xml:space="preserve" text-rendering="optimizeSpeed" style="font-family: Arial,Helvetica Neue,Helvetica,sans-serif;" font-size="12.5" font-weight="normal" font-style="normal" fill="#333333" opacity="1" x="16.313" text-anchor="start" y="32.292" textLength="59.37499237060547">Authority</tspan></text></g><g width="118.66666666666666" height="29.166666666666664" transform="scale(1,1) translate(2.5,42.917)"><text width="118.66666666666666" height="17.708330154418945" transform="scale(1,1) translate(0,5.7291682561238595)" xml:space="preserve"><tspan xml:space="preserve" text-rendering="optimizeSpeed" style="font-family: Arial,Helvetica Neue,Helvetica,sans-serif;" font-size="12.5" font-weight="bold" font-style="normal" fill="#333333" opacity="1" x="1.521" text-anchor="start" y="14.583" textLength="111.45831298828125">Counting votes</tspan></text></g><g transform="scale(1,1) translate(0,0)" fill="#7F7F7F" stroke="#7F7F7F" stroke-opacity="1"><path d="M0.5,40.417 L123.167,40.417" fill="none" stroke-width="1" stroke-dasharray="none"/><g><g stroke-dasharray="none"><path d="M-0.5,39.417L1.5,39.417L1.5,41.417L-0.5,41.417z" stroke-width="0" fill="none"/></g></g></g><g transform="scale(1,1) translate(0,0)" fill="#7F7F7F" stroke="#7F7F7F" stroke-opacity="1"><path d="M27.083,0.5 L27.083,40.917" fill="none" stroke-width="1" stroke-dasharray="none"/><g><g stroke-dasharray="none"><path d="M26.083,-0.5L28.083,-0.5L28.083,1.5L26.083,1.5z" stroke-width="0" fill="none"/></g></g></g><g stroke="white" fill="none" stroke-opacity="0" stroke-width="3" stroke-dasharray="none" width="3" height="73.583" transform="scale(1,1) translate(3.5,0.5)"><rect width="3" height="73.583"/></g><g stroke="white" fill="none" stroke-opacity="0" stroke-width="3" stroke-dasharray="none" width="122.667" height="3" transform="scale(1,1) translate(0.5,3.5)"><rect width="122.667" height="3"/></g></g><g width="81.167" height="59.167" transform="scale(1,1) translate(315.5,385.208)"><g fill="#545454" stroke="#545454" stroke-opacity="1" transform="scale(1,1) translate(0,0)"><path fill="none" stroke-width="1" stroke-dasharray="none" d="M3.565,49.83 A84.68,84.68 0 0,1 71.187,0.538"/><g><g stroke-dasharray="none"><path d="M8.236,51.614L-0.002,59.172L-1.106,48.047z" stroke="none" fill-opacity="1"/></g><g stroke-dasharray="none"><path d="M70.918,-4.456L81.173,0L71.456,5.53z" stroke="none" fill-opacity="1"/></g></g></g></g><g width="74.833" height="58.333" transform="scale(1,1) translate(316.833,406.25)"><g fill="#545454" stroke="#545454" stroke-opacity="1" transform="scale(1,1) translate(0,0)"><path fill="none" stroke-width="1" stroke-dasharray="none" d="M5.259,49.831 A123.208,123.208 0 0,1 65.304,3.025"/><g><g stroke-dasharray="none"><path d="M9.511,52.461L-0.001,58.335L1.007,47.201z" stroke="none" fill-opacity="1"/></g><g stroke-dasharray="none"><path d="M63.791,-1.74L74.836,-0.001L66.817,7.791z" stroke="none" fill-opacity="1"/></g></g></g></g><g width="82.833" height="66.833" transform="scale(1,1) translate(308.833,497.75)"><g fill="#545454" stroke="#545454" stroke-opacity="1" transform="scale(1,1) translate(0,0)"><path fill="none" stroke-width="1" stroke-dasharray="none" d="M9.492,3.14 A138.084,138.084 0 0,1 77.758,58.219"/><g><g stroke-dasharray="none"><path d="M7.922,7.887L-0.002,-0.001L11.062,-1.607z" stroke="none" fill-opacity="1"/></g><g stroke-dasharray="none"><path d="M82.065,55.681L82.834,66.835L73.45,60.757z" stroke="none" fill-opacity="1"/></g></g></g></g></g></svg>